<?xml version="1.0" encoding="UTF-8" standalone="no"?>
<!DOCTYPE svg PUBLIC "-//W3C//DTD SVG 1.1//EN"
 "http://www.w3.org/Graphics/SVG/1.1/DTD/svg11.dtd">
<!-- Generated by graphviz version 2.47.0 (20210316.0004)
 -->
<!-- Title: dependencies Pages: 1 -->
<svg width="1122pt" height="211pt"
 viewBox="0.00 0.00 1122.00 211.00" xmlns="http://www.w3.org/2000/svg" xmlns:xlink="http://www.w3.org/1999/xlink">
<g id="graph0" class="graph" transform="scale(1 1) rotate(0) translate(4 207)">
<title>dependencies</title>
<polygon fill="white" stroke="transparent" points="-4,4 -4,-207 1118,-207 1118,4 -4,4"/>
<text text-anchor="start" x="536.01" y="-42.4" font-family="Times-12" font-weight="bold" font-size="14.00">Legend</text>
<polygon fill="#ffffb3" stroke="transparent" points="323,-10 323,-30 343,-30 343,-10 323,-10"/>
<text text-anchor="start" x="346.63" y="-15.4" font-family="Times-12" font-size="14.00"> &#160;Declarations</text>
<polygon fill="#8dd3c7" stroke="transparent" points="436,-10 436,-30 456,-30 456,-10 436,-10"/>
<text text-anchor="start" x="459.73" y="-15.4" font-family="Times-12" font-size="14.00"> &#160;Module</text>
<polygon fill="#80b1d3" stroke="transparent" points="522,-10 522,-30 542,-30 542,-10 522,-10"/>
<text text-anchor="start" x="545.78" y="-15.4" font-family="Times-12" font-size="14.00"> &#160;Bootstrap</text>
<polygon fill="#fdb462" stroke="transparent" points="619,-10 619,-30 639,-30 639,-10 619,-10"/>
<text text-anchor="start" x="642.67" y="-15.4" font-family="Times-12" font-size="14.00"> &#160;Providers</text>
<polygon fill="#fb8072" stroke="transparent" points="715,-10 715,-30 735,-30 735,-10 715,-10"/>
<text text-anchor="start" x="738.73" y="-15.4" font-family="Times-12" font-size="14.00"> &#160;Exports</text>
<g id="clust1" class="cluster">
<title>cluster_AuthModule</title>
<polygon fill="none" stroke="black" stroke-dasharray="1,5" points="8,-70 8,-195 1106,-195 1106,-70 8,-70"/>
</g>
<g id="clust3" class="cluster">
<title>cluster_AuthModule_imports</title>
<polygon fill="none" stroke="black" points="892,-78 892,-130 1098,-130 1098,-78 892,-78"/>
</g>
<g id="clust6" class="cluster">
<title>cluster_AuthModule_providers</title>
<polygon fill="none" stroke="black" points="16,-78 16,-130 884,-130 884,-78 16,-78"/>
</g>
<!-- MailModule -->
<g id="node1" class="node">
<title>MailModule</title>
<polygon fill="#8dd3c7" stroke="black" points="1089.99,-122 1086.99,-126 1065.99,-126 1062.99,-122 1004.01,-122 1004.01,-86 1089.99,-86 1089.99,-122"/>
<text text-anchor="middle" x="1047" y="-99.8" font-family="Times,serif" font-size="14.00">MailModule</text>
</g>
<!-- AuthModule -->
<g id="node3" class="node">
<title>AuthModule</title>
<polygon fill="#8dd3c7" stroke="black" points="692.55,-187 689.55,-191 668.55,-191 665.55,-187 605.45,-187 605.45,-151 692.55,-151 692.55,-187"/>
<text text-anchor="middle" x="649" y="-164.8" font-family="Times,serif" font-size="14.00">AuthModule</text>
</g>
<!-- MailModule&#45;&gt;AuthModule -->
<g id="edge1" class="edge">
<title>MailModule&#45;&gt;AuthModule</title>
<path fill="none" stroke="black" d="M1047,-122.29C1047,-144.21 1047,-178 1047,-178 1047,-178 702.73,-178 702.73,-178"/>
<polygon fill="black" stroke="black" points="702.73,-174.5 692.73,-178 702.73,-181.5 702.73,-174.5"/>
</g>
<!-- UserModule -->
<g id="node2" class="node">
<title>UserModule</title>
<polygon fill="#8dd3c7" stroke="black" points="985.98,-122 982.98,-126 961.98,-126 958.98,-122 900.02,-122 900.02,-86 985.98,-86 985.98,-122"/>
<text text-anchor="middle" x="943" y="-99.8" font-family="Times,serif" font-size="14.00">UserModule</text>
</g>
<!-- UserModule&#45;&gt;AuthModule -->
<g id="edge2" class="edge">
<title>UserModule&#45;&gt;AuthModule</title>
<path fill="none" stroke="black" d="M943,-122.11C943,-141.34 943,-169 943,-169 943,-169 702.7,-169 702.7,-169"/>
<polygon fill="black" stroke="black" points="702.7,-165.5 692.7,-169 702.7,-172.5 702.7,-165.5"/>
</g>
<!-- AuthService -->
<g id="node4" class="node">
<title>AuthService</title>
<ellipse fill="#fdb462" stroke="black" cx="817" cy="-104" rx="59.11" ry="18"/>
<text text-anchor="middle" x="817" y="-99.8" font-family="Times,serif" font-size="14.00">AuthService</text>
</g>
<!-- AuthService&#45;&gt;AuthModule -->
<g id="edge3" class="edge">
<title>AuthService&#45;&gt;AuthModule</title>
<path fill="none" stroke="black" d="M817,-122.03C817,-138.4 817,-160 817,-160 817,-160 702.7,-160 702.7,-160"/>
<polygon fill="black" stroke="black" points="702.7,-156.5 692.7,-160 702.7,-163.5 702.7,-156.5"/>
</g>
<!-- GoogleAuthStrategy -->
<g id="node5" class="node">
<title>GoogleAuthStrategy</title>
<ellipse fill="#fdb462" stroke="black" cx="649" cy="-104" rx="90.91" ry="18"/>
<text text-anchor="middle" x="649" y="-99.8" font-family="Times,serif" font-size="14.00">GoogleAuthStrategy</text>
</g>
<!-- GoogleAuthStrategy&#45;&gt;AuthModule -->
<g id="edge4" class="edge">
<title>GoogleAuthStrategy&#45;&gt;AuthModule</title>
<path fill="none" stroke="black" d="M649,-122.11C649,-122.11 649,-140.99 649,-140.99"/>
<polygon fill="black" stroke="black" points="645.5,-140.99 649,-150.99 652.5,-140.99 645.5,-140.99"/>
</g>
<!-- KakaoAuthStrategy -->
<g id="node6" class="node">
<title>KakaoAuthStrategy</title>
<ellipse fill="#fdb462" stroke="black" cx="452" cy="-104" rx="87.96" ry="18"/>
<text text-anchor="middle" x="452" y="-99.8" font-family="Times,serif" font-size="14.00">KakaoAuthStrategy</text>
</g>
<!-- KakaoAuthStrategy&#45;&gt;AuthModule -->
<g id="edge5" class="edge">
<title>KakaoAuthStrategy&#45;&gt;AuthModule</title>
<path fill="none" stroke="black" d="M452,-122.03C452,-138.4 452,-160 452,-160 452,-160 595.28,-160 595.28,-160"/>
<polygon fill="black" stroke="black" points="595.28,-163.5 605.28,-160 595.28,-156.5 595.28,-163.5"/>
</g>
<!-- LocalAuthStrategy -->
<g id="node7" class="node">
<title>LocalAuthStrategy</title>
<ellipse fill="#fdb462" stroke="black" cx="262" cy="-104" rx="84.53" ry="18"/>
<text text-anchor="middle" x="262" y="-99.8" font-family="Times,serif" font-size="14.00">LocalAuthStrategy</text>
</g>
<!-- LocalAuthStrategy&#45;&gt;AuthModule -->
<g id="edge6" class="edge">
<title>LocalAuthStrategy&#45;&gt;AuthModule</title>
<path fill="none" stroke="black" d="M262,-122.11C262,-141.34 262,-169 262,-169 262,-169 595.36,-169 595.36,-169"/>
<polygon fill="black" stroke="black" points="595.36,-172.5 605.36,-169 595.36,-165.5 595.36,-172.5"/>
</g>
<!-- TokenStrategy -->
<g id="node8" class="node">
<title>TokenStrategy</title>
<ellipse fill="#fdb462" stroke="black" cx="92" cy="-104" rx="67.78" ry="18"/>
<text text-anchor="middle" x="92" y="-99.8" font-family="Times,serif" font-size="14.00">TokenStrategy</text>
</g>
<!-- TokenStrategy&#45;&gt;AuthModule -->
<g id="edge7" class="edge">
<title>TokenStrategy&#45;&gt;AuthModule</title>
<path fill="none" stroke="black" d="M92,-122.29C92,-144.21 92,-178 92,-178 92,-178 595.29,-178 595.29,-178"/>
<polygon fill="black" stroke="black" points="595.29,-181.5 605.29,-178 595.29,-174.5 595.29,-181.5"/>
</g>
</g>
</svg>
