<?xml version="1.0" encoding="UTF-8" standalone="no"?>
<!DOCTYPE svg PUBLIC "-//W3C//DTD SVG 1.1//EN"
 "http://www.w3.org/Graphics/SVG/1.1/DTD/svg11.dtd">
<!-- Generated by graphviz version 2.47.0 (20210316.0004)
 -->
<!-- Title: dependencies Pages: 1 -->
<svg width="972pt" height="211pt"
 viewBox="0.00 0.00 972.00 211.00" xmlns="http://www.w3.org/2000/svg" xmlns:xlink="http://www.w3.org/1999/xlink">
<g id="graph0" class="graph" transform="scale(1 1) rotate(0) translate(4 207)">
<title>dependencies</title>
<polygon fill="white" stroke="transparent" points="-4,4 -4,-207 968,-207 968,4 -4,4"/>
<text text-anchor="start" x="461.01" y="-42.4" font-family="Times-12" font-weight="bold" font-size="14.00">Legend</text>
<polygon fill="#ffffb3" stroke="transparent" points="248,-10 248,-30 268,-30 268,-10 248,-10"/>
<text text-anchor="start" x="271.63" y="-15.4" font-family="Times-12" font-size="14.00"> &#160;Declarations</text>
<polygon fill="#8dd3c7" stroke="transparent" points="361,-10 361,-30 381,-30 381,-10 361,-10"/>
<text text-anchor="start" x="384.73" y="-15.4" font-family="Times-12" font-size="14.00"> &#160;Module</text>
<polygon fill="#80b1d3" stroke="transparent" points="447,-10 447,-30 467,-30 467,-10 447,-10"/>
<text text-anchor="start" x="470.78" y="-15.4" font-family="Times-12" font-size="14.00"> &#160;Bootstrap</text>
<polygon fill="#fdb462" stroke="transparent" points="544,-10 544,-30 564,-30 564,-10 544,-10"/>
<text text-anchor="start" x="567.67" y="-15.4" font-family="Times-12" font-size="14.00"> &#160;Providers</text>
<polygon fill="#fb8072" stroke="transparent" points="640,-10 640,-30 660,-30 660,-10 640,-10"/>
<text text-anchor="start" x="663.73" y="-15.4" font-family="Times-12" font-size="14.00"> &#160;Exports</text>
<g id="clust1" class="cluster">
<title>cluster_AppModule</title>
<polygon fill="none" stroke="black" stroke-dasharray="1,5" points="8,-70 8,-195 956,-195 956,-70 8,-70"/>
</g>
<g id="clust6" class="cluster">
<title>cluster_AppModule_providers</title>
<polygon fill="none" stroke="black" points="684,-78 684,-130 948,-130 948,-78 684,-78"/>
</g>
<g id="clust3" class="cluster">
<title>cluster_AppModule_imports</title>
<polygon fill="none" stroke="black" points="16,-78 16,-130 676,-130 676,-78 16,-78"/>
</g>
<!-- AuthModule -->
<g id="node1" class="node">
<title>AuthModule</title>
<polygon fill="#8dd3c7" stroke="black" points="667.55,-122 664.55,-126 643.55,-126 640.55,-122 580.45,-122 580.45,-86 667.55,-86 667.55,-122"/>
<text text-anchor="middle" x="624" y="-99.8" font-family="Times,serif" font-size="14.00">AuthModule</text>
</g>
<!-- AppModule -->
<g id="node7" class="node">
<title>AppModule</title>
<polygon fill="#8dd3c7" stroke="black" points="499.66,-187 496.66,-191 475.66,-191 472.66,-187 416.34,-187 416.34,-151 499.66,-151 499.66,-187"/>
<text text-anchor="middle" x="458" y="-164.8" font-family="Times,serif" font-size="14.00">AppModule</text>
</g>
<!-- AuthModule&#45;&gt;AppModule -->
<g id="edge1" class="edge">
<title>AuthModule&#45;&gt;AppModule</title>
<path fill="none" stroke="black" d="M624,-122.03C624,-138.4 624,-160 624,-160 624,-160 509.89,-160 509.89,-160"/>
<polygon fill="black" stroke="black" points="509.89,-156.5 499.89,-160 509.89,-163.5 509.89,-156.5"/>
</g>
<!-- BankModule -->
<g id="node2" class="node">
<title>BankModule</title>
<polygon fill="#8dd3c7" stroke="black" points="562.6,-122 559.6,-126 538.6,-126 535.6,-122 473.4,-122 473.4,-86 562.6,-86 562.6,-122"/>
<text text-anchor="middle" x="518" y="-99.8" font-family="Times,serif" font-size="14.00">BankModule</text>
</g>
<!-- BankModule&#45;&gt;AppModule -->
<g id="edge2" class="edge">
<title>BankModule&#45;&gt;AppModule</title>
<path fill="none" stroke="black" d="M486.64,-122.11C486.64,-122.11 486.64,-140.99 486.64,-140.99"/>
<polygon fill="black" stroke="black" points="483.14,-140.99 486.64,-150.99 490.14,-140.99 483.14,-140.99"/>
</g>
<!-- DataBaseModule -->
<g id="node3" class="node">
<title>DataBaseModule</title>
<polygon fill="#8dd3c7" stroke="black" points="455.69,-122 452.69,-126 431.69,-126 428.69,-122 342.31,-122 342.31,-86 455.69,-86 455.69,-122"/>
<text text-anchor="middle" x="399" y="-99.8" font-family="Times,serif" font-size="14.00">DataBaseModule</text>
</g>
<!-- DataBaseModule&#45;&gt;AppModule -->
<g id="edge3" class="edge">
<title>DataBaseModule&#45;&gt;AppModule</title>
<path fill="none" stroke="black" d="M435.88,-122.11C435.88,-122.11 435.88,-140.99 435.88,-140.99"/>
<polygon fill="black" stroke="black" points="432.38,-140.99 435.88,-150.99 439.38,-140.99 432.38,-140.99"/>
</g>
<!-- MailModule -->
<g id="node4" class="node">
<title>MailModule</title>
<polygon fill="#8dd3c7" stroke="black" points="323.99,-122 320.99,-126 299.99,-126 296.99,-122 238.01,-122 238.01,-86 323.99,-86 323.99,-122"/>
<text text-anchor="middle" x="281" y="-99.8" font-family="Times,serif" font-size="14.00">MailModule</text>
</g>
<!-- MailModule&#45;&gt;AppModule -->
<g id="edge4" class="edge">
<title>MailModule&#45;&gt;AppModule</title>
<path fill="none" stroke="black" d="M281,-122.03C281,-138.4 281,-160 281,-160 281,-160 406.05,-160 406.05,-160"/>
<polygon fill="black" stroke="black" points="406.05,-163.5 416.05,-160 406.05,-156.5 406.05,-163.5"/>
</g>
<!-- RedisModule -->
<g id="node5" class="node">
<title>RedisModule</title>
<polygon fill="#8dd3c7" stroke="black" points="219.94,-122 216.94,-126 195.94,-126 192.94,-122 128.06,-122 128.06,-86 219.94,-86 219.94,-122"/>
<text text-anchor="middle" x="174" y="-99.8" font-family="Times,serif" font-size="14.00">RedisModule</text>
</g>
<!-- RedisModule&#45;&gt;AppModule -->
<g id="edge5" class="edge">
<title>RedisModule&#45;&gt;AppModule</title>
<path fill="none" stroke="black" d="M174,-122.11C174,-141.34 174,-169 174,-169 174,-169 406.09,-169 406.09,-169"/>
<polygon fill="black" stroke="black" points="406.09,-172.5 416.09,-169 406.09,-165.5 406.09,-172.5"/>
</g>
<!-- UserModule -->
<g id="node6" class="node">
<title>UserModule</title>
<polygon fill="#8dd3c7" stroke="black" points="109.98,-122 106.98,-126 85.98,-126 82.98,-122 24.02,-122 24.02,-86 109.98,-86 109.98,-122"/>
<text text-anchor="middle" x="67" y="-99.8" font-family="Times,serif" font-size="14.00">UserModule</text>
</g>
<!-- UserModule&#45;&gt;AppModule -->
<g id="edge6" class="edge">
<title>UserModule&#45;&gt;AppModule</title>
<path fill="none" stroke="black" d="M67,-122.29C67,-144.21 67,-178 67,-178 67,-178 406.16,-178 406.16,-178"/>
<polygon fill="black" stroke="black" points="406.16,-181.5 416.16,-178 406.16,-174.5 406.16,-181.5"/>
</g>
<!-- AppService -->
<g id="node8" class="node">
<title>AppService</title>
<ellipse fill="#fdb462" stroke="black" cx="883" cy="-104" rx="56.74" ry="18"/>
<text text-anchor="middle" x="883" y="-99.8" font-family="Times,serif" font-size="14.00">AppService</text>
</g>
<!-- AppService&#45;&gt;AppModule -->
<g id="edge7" class="edge">
<title>AppService&#45;&gt;AppModule</title>
<path fill="none" stroke="black" d="M883,-122.29C883,-144.21 883,-178 883,-178 883,-178 509.91,-178 509.91,-178"/>
<polygon fill="black" stroke="black" points="509.91,-174.5 499.91,-178 509.91,-181.5 509.91,-174.5"/>
</g>
<!-- MailService -->
<g id="node9" class="node">
<title>MailService</title>
<ellipse fill="#fdb462" stroke="black" cx="750" cy="-104" rx="58.46" ry="18"/>
<text text-anchor="middle" x="750" y="-99.8" font-family="Times,serif" font-size="14.00">MailService</text>
</g>
<!-- MailService&#45;&gt;AppModule -->
<g id="edge8" class="edge">
<title>MailService&#45;&gt;AppModule</title>
<path fill="none" stroke="black" d="M750,-122.11C750,-141.34 750,-169 750,-169 750,-169 509.84,-169 509.84,-169"/>
<polygon fill="black" stroke="black" points="509.84,-165.5 499.84,-169 509.84,-172.5 509.84,-165.5"/>
</g>
</g>
</svg>
